{
	"asset":{
		"generator":"Khronos glTF Blender I/O v4.3.47",
		"version":"2.0"
	},
	"extensionsUsed":[
		"KHR_materials_specular"
	],
	"scene":0,
	"scenes":[
		{
			"name":"Scene",
			"nodes":[
				0
			]
		}
	],
	"nodes":[
		{
			"mesh":0,
			"name":"Car8",
			"rotation":[
				0.70710688829422,
				0,
				0,
				0.7071066498756409
			]
		}
	],
	"materials":[
		{
			"doubleSided":true,
			"extensions":{
				"KHR_materials_specular":{
					"specularFactor":0
				}
			},
			"name":"car8_mat",
			"pbrMetallicRoughness":{
				"baseColorTexture":{
					"index":0
				},
				"metallicFactor":0,
				"roughnessFactor":0.8945907354354858
			}
		}
	],
	"meshes":[
		{
			"name":"Car8",
			"primitives":[
				{
					"attributes":{
						"POSITION":0,
						"NORMAL":1,
						"TEXCOORD_0":2,
						"TANGENT":3
					},
					"indices":4,
					"material":0
				}
			]
		}
	],
	"textures":[
		{
			"sampler":0,
			"source":0
		}
	],
	"images":[
		{
			"mimeType":"image/png",
			"name":"Car8.png",
			"uri":"../../assets/models/Car%2008/Car8.png"
		}
	],
	"accessors":[
		{
			"bufferView":0,
			"componentType":5126,
			"count":658,
			"max":[
				1.583251953125,
				3.12477707862854,
				0.03883599862456322
			],
			"min":[
				-1.583251953125,
				-3.767357110977173,
				-3.1957290172576904
			],
			"type":"VEC3"
		},
		{
			"bufferView":1,
			"componentType":5126,
			"count":658,
			"type":"VEC3"
		},
		{
			"bufferView":2,
			"componentType":5126,
			"count":658,
			"type":"VEC2"
		},
		{
			"bufferView":3,
			"componentType":5126,
			"count":658,
			"type":"VEC4"
		},
		{
			"bufferView":4,
			"componentType":5123,
			"count":1128,
			"type":"SCALAR"
		}
	],
	"bufferViews":[
		{
			"buffer":0,
			"byteLength":7896,
			"byteOffset":0,
			"target":34962
		},
		{
			"buffer":0,
			"byteLength":7896,
			"byteOffset":7896,
			"target":34962
		},
		{
			"buffer":0,
			"byteLength":5264,
			"byteOffset":15792,
			"target":34962
		},
		{
			"buffer":0,
			"byteLength":10528,
			"byteOffset":21056,
			"target":34962
		},
		{
			"buffer":0,
			"byteLength":2256,
			"byteOffset":31584,
			"target":34963
		}
	],
	"samplers":[
		{
			"magFilter":9728,
			"minFilter":9984
		}
	],
	"buffers":[
		{
			"byteLength":33840,
			"uri":"Car8-9d63fa6491248080a97b9b983ec30726.bin"
		}
	]
}
